<?xml version="1.0" standalone="no"?>
<!DOCTYPE svg PUBLIC "-//W3C//DTD SVG 20010904//EN"
 "http://www.w3.org/TR/2001/REC-SVG-20010904/DTD/svg10.dtd">
<svg version="1.0" xmlns="http://www.w3.org/2000/svg"
 width="1080.000000pt" height="1080.000000pt" viewBox="0 0 1080.000000 1080.000000"
 preserveAspectRatio="xMidYMid meet">
<metadata>
Created by potrace 1.11, written by Peter Selinger 2001-2013
</metadata>
<g transform="translate(0.000000,1080.000000) scale(0.100000,-0.100000)"
fill="#000000" stroke="none">
<path d="M5115 10794 c-229 -17 -333 -28 -484 -50 -1012 -145 -1925 -560
-2730 -1241 -148 -126 -438 -416 -564 -564 -227 -269 -437 -567 -598 -848
-462 -810 -709 -1743 -709 -2676 0 -814 184 -1615 539 -2351 365 -753 885
-1395 1557 -1920 141 -110 442 -311 613 -408 584 -335 1224 -555 1892 -650
293 -42 418 -50 759 -50 187 0 380 5 455 12 1156 113 2151 532 3034 1279 148
126 438 416 564 564 227 269 437 567 598 848 462 810 709 1743 709 2676 0 814
-184 1615 -539 2351 -365 753 -885 1395 -1557 1920 -141 110 -442 311 -613
408 -664 381 -1386 608 -2181 686 -107 11 -654 21 -745 14z m637 -3096 c31
-25 49 -553 27 -802 -10 -126 -6 -158 25 -178 6 -4 77 -8 158 -8 167 0 191 -7
218 -60 62 -122 166 -201 400 -304 186 -82 1006 -423 1318 -547 256 -103 333
-139 452 -217 225 -146 331 -270 390 -457 17 -56 24 -113 32 -285 11 -240 4
-733 -12 -825 -62 -348 -315 -618 -672 -720 -223 -63 -129 -59 -1653 -62
l-1390 -3 25 21 c14 11 57 47 97 79 172 141 284 333 328 561 35 184 27 1020
-11 1192 -36 159 -143 327 -280 438 -161 130 -290 201 -654 357 -140 60 -383
166 -540 235 -157 68 -361 157 -455 197 -411 175 -548 269 -641 439 -14 27
-37 54 -50 60 -15 7 -89 11 -188 11 -136 0 -166 -3 -177 -16 -10 -12 -10 -85
-1 -397 14 -437 24 -553 55 -640 63 -174 270 -371 536 -510 109 -57 819 -366
1431 -624 473 -199 571 -243 597 -266 21 -19 22 -26 17 -111 -22 -368 -44
-455 -147 -563 -65 -69 -141 -115 -253 -152 -141 -48 -225 -53 -789 -49 -503
3 -511 4 -580 27 -129 43 -223 99 -311 186 -130 129 -175 242 -188 478 l-6
109 181 -3 c162 -3 182 -2 194 14 19 27 17 346 -3 370 -14 16 -55 17 -589 17
l-573 0 0 1485 0 1485 408 0 407 0 -55 -47 c-157 -134 -266 -289 -315 -450
l-6 -23 194 0 195 0 35 48 c102 137 240 218 416 242 107 15 980 15 1079 1 256
-38 460 -198 539 -422 21 -59 27 -99 31 -196 l5 -123 228 0 227 0 7 64 c9 79
-9 250 -36 347 -26 93 -84 218 -139 299 -51 75 -173 205 -241 257 -27 20 -49
41 -49 45 0 4 166 8 368 8 280 0 372 -3 384 -12z m2123 -44 c367 -52 652 -255
810 -577 63 -129 76 -187 82 -359 l5 -148 -186 0 -186 0 0 109 c0 131 -20 208
-80 300 -79 122 -194 213 -341 268 -155 58 -209 63 -730 63 -281 0 -499 -4
-546 -11 -195 -27 -362 -116 -458 -243 -34 -46 -80 -54 -267 -47 l-167 6 23
67 c46 131 187 304 325 397 194 132 394 177 836 190 331 10 755 3 880 -15z
m-4928 -1548 c125 -75 771 -366 1398 -631 434 -183 621 -301 696 -441 33 -61
52 -143 47 -211 l-3 -52 -175 73 c-262 109 -1216 534 -1617 719 -307 142 -426
257 -452 437 -5 36 -6 89 -4 118 5 51 6 52 27 39 11 -7 49 -30 83 -51z m-507
-1856 c11 -7 16 -43 21 -162 4 -92 13 -180 24 -222 60 -238 210 -454 413 -597
l64 -44 -124 -8 c-151 -10 -365 -1 -434 17 -128 34 -253 135 -309 249 -51 106
-56 142 -62 452 -5 265 -4 292 11 308 15 15 41 17 199 17 100 0 189 -5 197
-10z"/>
<path d="M6140 6030 c0 -253 135 -367 715 -600 127 -51 392 -160 590 -242 496
-207 922 -378 940 -378 12 0 15 13 15 58 0 71 -23 151 -58 204 -26 41 -180
158 -288 220 -87 51 -360 165 -984 413 -550 219 -728 297 -854 373 -37 23 -70
42 -72 42 -2 0 -4 -40 -4 -90z"/>
<path d="M5810 4697 l0 -1108 1048 3 c1179 4 1090 -2 1268 83 154 74 237 176
268 330 19 92 37 352 26 379 -12 33 -24 40 -175 96 -77 29 -318 124 -535 212
-217 88 -570 231 -785 318 -486 197 -586 241 -685 300 -183 110 -286 217 -375
390 l-54 105 -1 -1108z"/>
</g>
</svg>
